<?xml version="1.0" encoding="utf-8"?>
<!-- Generator: Adobe Illustrator 19.1.0, SVG Export Plug-In . SVG Version: 6.00 Build 0)  -->
<svg version="1.1" id="Layer_1" xmlns="http://www.w3.org/2000/svg" xmlns:xlink="http://www.w3.org/1999/xlink" x="0px" y="0px"
	 viewBox="0 0 900 640" style="enable-background:new 0 0 900 640;" xml:space="preserve">
<g>
	<g>
		<path d="M109.3,87.9c18.7,64.8,28,132,27.6,199.4c0,3.2,5,3.2,5,0c0.4-67.8-8.9-135.5-27.7-200.7
			C113.2,83.5,108.4,84.8,109.3,87.9L109.3,87.9z"/>
	</g>
</g>
<g>
	<g>
		<path d="M87.5,100.9c0.1-2.5,15.9-4.6,18.1-5c6.5-1.3,13.1-2.5,19.7-3.5c13.6-2,27.2-3.3,41-4c3.2-0.2,3.2-5.2,0-5
			c-16.1,0.8-32.1,2.4-47.9,5c-8.1,1.3-16.2,2.9-24.3,4.8c-4.7,1.1-11.3,1.7-11.6,7.6C82.3,104.1,87.3,104.1,87.5,100.9L87.5,100.9z
			"/>
	</g>
</g>
<g>
	<g>
		<path d="M188.9,164.9c3.9,24.5,27.7,39.3,50.8,41.6c14.8,1.5,30.2-1.2,44.4-5.4c9.7-2.9,18.1-10.4,12.1-21
			c-5.8-10.2-19.3-13.6-30.3-12.8c-13,0.9-25.5,6.6-36.2,13.9c-21.9,14.8-40.7,36.5-45.7,63.1c-1.4,7.5-1.7,15.3-0.7,22.9
			c0.8,5.8,2.5,11.9,8.3,14.4c6.1,2.6,13.5,0.3,19.5-1.1c8.6-2.1,17.1-4.8,25.3-8c3-1.2,1.7-6-1.3-4.8c-10.9,4.3-22.6,8.3-34.2,9.8
			c-2.7,0.3-5.9,0.6-8.4-1c-2.9-1.8-3.6-5.5-4.2-8.6c-1-5.9-1-12-0.3-17.9c2.7-22.3,15.9-41.6,32.8-55.9
			c15.6-13.2,39-27.7,60.2-19.8c5,1.9,10.4,5.5,11.8,11c1.8,6.9-5.6,9.7-10.9,11.2c-11.6,3.3-23.8,5.6-36,5.4
			c-23.3-0.4-48.5-13.3-52.4-38.3C193.3,160.4,188.4,161.8,188.9,164.9L188.9,164.9z"/>
	</g>
</g>
<g>
	<g>
		<path d="M347.2,279c-12-12.2-25-25.4-29-42.7c-4-17.4,2.2-36.1,13.1-49.7c11-13.8,26.7-23.2,42.9-29.5c8.4-3.3,18.5-7.8,27.5-4.6
			c8.4,2.9,15.1,9.8,19.1,17.6c9.3,17.9,2.6,39.8-14.3,50.4c1.2,0.5,2.4,1,3.7,1.5c-3.6-12.3,2-24.7,13.3-30.5
			c5.5-2.8,11.8-4.1,17.9-4.9c2.7-0.3,5.8-0.8,8.5-0.6c4.8,0.4,6.3,3.6,7.8,7.6c9.9,25.8,15.3,53.5,17,81.1c0.2,3.2,5.2,3.2,5,0
			c-1-17.6-3.6-35.1-7.8-52.2c-2.1-8.4-4.6-16.8-7.4-25c-1.9-5.5-3.7-12.8-9.5-15.5c-5.4-2.5-13.2-0.6-18.9,0.4
			c-6.7,1.1-13.4,3.2-19,7.1c-10.9,7.6-15.5,21.2-11.8,33.9c0.4,1.5,2.3,2.4,3.7,1.5c15.5-9.6,24-28,20.1-46
			c-3.7-17.1-19.5-34.9-38.4-31.9c-10,1.6-20.1,6-29.2,10.4c-9,4.4-17.6,9.8-25,16.6c-14.5,13.1-24.7,31.7-24.8,51.6
			c-0.1,23.7,16.1,41.5,31.7,57.4C345.9,284.8,349.4,281.3,347.2,279L347.2,279z"/>
	</g>
</g>
<g>
	<g>
		<path d="M508.3,339.1c4.9-35,9.9-70,14.8-105.1c1.2-8.5,2.4-16.9,3.6-25.4c1.1-7.8,2.2-15.8,5.5-23c3.2-7.1,8.8-13.5,16.5-15.9
			c8.4-2.6,15.6,2,21.8,7.2c13.1,10.9,23.1,25.2,29.2,41.1c0.8-1.1,1.6-2.1,2.4-3.2c-40.3,3.2-84.7,6.2-118.9-19.4
			c-2.6-1.9-5.1,2.4-2.5,4.3c34.9,26.1,80.4,23.4,121.5,20c1.5-0.1,3-1.5,2.4-3.2c-5.6-14.8-14.2-28.2-25.7-39
			c-10.7-10.2-23.9-18.7-38.2-9.7c-14.4,9.1-17,26.6-19.1,42.1c-2.8,19.6-5.5,39.3-8.3,58.9c-3.2,22.9-6.5,45.8-9.7,68.7
			C503,340.9,507.9,342.2,508.3,339.1L508.3,339.1z"/>
	</g>
</g>
</svg>
